<svg width="200" height="67" viewBox="0 0 200 67" fill="none" xmlns="http://www.w3.org/2000/svg">
<g clip-path="url(#clip0_1_2)">
<path d="M201 39.5715C194.732 37.0182 188.637 33.5765 182.162 31.1472C167.171 25.523 154.04 30.1439 143.125 40.5977C131.773 51.4698 118.673 56.9983 103.141 56.9723C89.1887 56.9489 77.4344 51.4562 67.455 41.9227C64.3264 38.9339 61.1747 35.9433 58.351 32.6789C57.6151 31.8281 57.4342 29.261 58.0887 28.6501C61.5945 25.3776 65.4451 22.4745 69.5882 19.5766C72.7066 22.7681 75.1878 26.0779 78.2064 28.7896C79.9727 30.3764 82.5962 31.0089 84.8341 32.0708C93.2474 40.3038 108.337 41.5259 116.926 34.6643C123.066 29.7597 129.294 24.8919 135.902 20.6627C152.224 10.2164 169.391 9.30071 185.993 19.3012C191.808 22.8039 195.725 29.4569 200.754 34.3357C201 35.7144 201 37.4287 201 39.5715Z" fill="#F8AC00"/>
<path d="M1 21.4375C5.00731 23.5058 8.75862 26.6546 13.0788 28.3745C20.523 31.3381 28.2101 33.9231 36.0224 35.6234C39.4307 36.3651 43.5182 34.8987 47.081 33.759C50.5792 32.64 52.7683 32.9036 54.9851 36.2255C56.9787 39.2128 60.1255 41.4061 62.5675 44.1257C64.7943 46.6057 64.889 48.6215 61.1637 50.1048C42.5617 57.5116 23.6321 53.8426 10.3256 39.687C7.00847 36.1582 4.56599 31.8072 1.36075 27.917C1 25.9583 1 23.9167 1 21.4375Z" fill="#265E76"/>
<path d="M85.0319 31.7698C82.5962 31.0089 79.9727 30.3764 78.2064 28.7896C75.1878 26.0779 72.7066 22.7681 69.8606 19.3923C76.9186 13.6136 84.8509 10.2617 93.9105 8.82253C105.068 7.05005 115.142 9.47473 124.889 14.4516C130.026 17.075 130.176 18.9258 125.717 22.7573C123.712 24.4795 121.855 26.5077 119.573 27.7277C117.791 28.6803 115.026 29.5462 113.438 28.8236C103.416 24.2632 94.1759 25.7459 85.0319 31.7698Z" fill="#265E76"/>
<path d="M159.185 35.0253C163.182 36.2756 166.769 37.538 170.855 38.9763C177.016 33.8812 183.214 33.498 188.001 38.5075C191.968 42.6597 192.067 49.1698 188.225 53.2715C183.302 58.5262 176.515 58.3022 169.618 52.5228C165.67 56.4681 161.063 58.5396 155.509 56.1431C150.624 54.0353 148.522 50.15 149.026 44.5512C149.558 38.6391 153.499 36.1327 159.185 35.0253Z" fill="#265E76"/>
<path d="M35.1346 8.0279C44.3503 7.45087 49.2101 17.428 45.3647 24.2871C42.7604 28.9324 38.3762 31.0992 32.3723 29.9239C28.0939 29.0863 25.1006 25.1056 25.0016 20.1219C24.8587 12.9215 26.5441 10.3516 32.3925 8.80772C33.1811 8.59954 33.9453 8.29909 35.1346 8.0279Z" fill="#265E76"/>
</g>
<defs>
<clipPath id="clip0_1_2">
<rect width="200" height="67" fill="white"/>
</clipPath>
</defs>
</svg>
