<?xml version="1.0" standalone="no"?>
<!DOCTYPE svg PUBLIC "-//W3C//DTD SVG 20010904//EN"
 "http://www.w3.org/TR/2001/REC-SVG-20010904/DTD/svg10.dtd">
<svg version="1.0" xmlns="http://www.w3.org/2000/svg"
 width="200.000000pt" height="67.000000pt" viewBox="0 0 200.000000 67.000000"
 preserveAspectRatio="xMidYMid meet">

<g transform="translate(0.000000,67.000000) scale(0.100000,-0.100000)"
fill="#000000" stroke="none">
<path d="M279 551 c-35 -36 -38 -77 -8 -115 30 -38 64 -49 105 -36 55 19 80
81 52 133 -18 34 -40 46 -81 47 -29 0 -45 -7 -68 -29z"/>
<path d="M849 557 c-66 -22 -149 -70 -149 -85 0 -4 24 -32 54 -61 l54 -53 34
25 c42 32 140 59 188 51 19 -3 54 -12 78 -21 40 -14 45 -14 65 3 46 38 87 78
87 84 0 4 -33 22 -72 41 -65 30 -84 34 -173 36 -84 3 -111 0 -166 -20z"/>
<path d="M21 424 c30 -79 139 -191 227 -232 50 -24 69 -27 162 -27 78 0 117 5
153 18 26 10 47 22 47 26 0 4 -25 35 -55 68 l-54 60 -53 -14 c-31 -8 -77 -12
-110 -10 -81 7 -207 52 -272 97 -52 37 -54 37 -45 14z"/>
<path d="M1537 299 c-25 -15 -46 -68 -40 -101 13 -68 106 -97 157 -49 14 14
26 31 26 40 0 9 12 1 30 -21 36 -44 77 -55 119 -34 87 46 58 176 -39 176 -40
0 -90 -31 -90 -56 0 -8 -4 -14 -10 -14 -5 0 -10 5 -10 10 0 6 -11 22 -25 35
-26 27 -84 34 -118 14z"/>
</g>
</svg>
